<svg xmlns="http://www.w3.org/2000/svg" viewBox="0 0 197.81 199.32">
    <title>Asset 2</title>
    <g id="Layer_2" data-name="Layer 2">
        <g id="Layer_1-2" data-name="Layer 1" fill="white">
            <path
                d="M94.17,88.15c8.14-5.91,12.46-11.71,12.05-21.49-.84-20.3-.27-40.65-.24-61,0-6,.31-6.27,6.31-5.17,3.93.72,7.84,1.55,11.77,2.27,3.43.62,5.22,2.39,5.21,6.09,0,23.33.07,46.66,0,70,0,6.33-2.7,11.39-7.76,15.5-6,4.86-6.1,5.45-.23,10.42,6.12,5.18,8.36,11.1,8.17,19.17-.52,21.65-.3,43.33-.09,65,0,5-1.73,7.43-6.63,8-3.14.34-6.23,1.09-9.35,1.64-6.5,1.15-7.38.46-7.39-6q0-24.5,0-49c0-3-.47-6.09.08-9,2-10.8-3.52-17.61-12.28-23.71-.1,2-.24,3.71-.24,5.39q0,38.5,0,77c0,6.59-.25,6.77-6.88,5.46-2.45-.48-4.88-1.06-7.34-1.51-8.44-1.54-8.45-1.53-8.45-10.24q0-87.49,0-175c0-8.13,0-8.14,7.84-9.72C81.62,1.63,84.55.94,87.51.56,93.79-.22,94.12.1,94.16,6.3c0,6.83,0,13.67,0,20.5q0,27.5,0,55C94.17,83.57,94.17,85.35,94.17,88.15Z" />
            <path
                d="M35,138.69c0-7.82-.08-15.63,0-23.45.05-3.34-1.5-4.31-4.58-4.27-8,.11-16-.19-24,.11C1.85,111.25.16,109.29,0,105Q-1.44,48,45.62,15.87c3.49-2.39,7.32-4.28,11.91-6.93a63.06,63.06,0,0,1,.77,6.39c0,18.15-.09,36.31.11,54.46,0,4.61-1.59,6.33-6.11,6.05-4.15-.25-8.33-.14-12.49,0-3.35.08-4.92-1.34-4.79-4.76a51.63,51.63,0,0,0-.48-9.77C29.08,68.41,26.15,76.41,24.59,85c-.58,3.2,1.66,3.47,4,3.46,8,0,16,.19,24-.07,4.4-.14,5.8,1.53,5.78,5.82-.12,30.15-.06,60.29-.09,90.44a46.32,46.32,0,0,1-.57,4.88c-2.1-.63-3.8-.8-5.13-1.59-22.55-13.31-39.25-31.69-47.87-56.69-2.44-7.08-1.51-7,5.74-7.87C21.87,122,29.86,125,32.84,136.9A8.32,8.32,0,0,0,34.08,139Z" />
            <path
                d="M141.9,8.7c5.47,3,10.13,4.9,14,7.82C174.49,30.45,188.26,48,195.71,70.25a40.51,40.51,0,0,1,1.21,4.33c1.36,6.29.49,7.49-5.9,7.38-19.91-.35-14.25,3.08-21.93-14.54a25.65,25.65,0,0,0-4.12-7V139l.87.42,7.71-17c-4.15-3.1-6.58-13.47-4.11-17.43.82-1.31,3.28-2.14,5-2.22,5.82-.27,11.66,0,17.49-.13,4-.08,5.33,1.75,5.65,5.72,1.68,20.77-7.48,37.47-19.56,53-7.7,9.92-16.41,18.87-27.6,25-2.43,1.33-5.08,2.27-8.55,3.8Z" />
        </g>
    </g>
</svg>